PathFileType	4	(X/Y/Z)	Patient4_TMGait_0pt7_01_right_09.trc.trc
DataRate	CameraRate	NumFrames	NumMarkers	Units	OrigDataRate	OrigDataStartFrame	OrigNumFrames
90.322580645161	90.322580645161	4	33	mm	90.322580645161	89	       141
Frame#	Time	Sacral			L.Shoulder			Chest			R.Shoulder			Neck			R.ASIS			L.ASIS			R.Thigh.Superior			R.Thigh.Lateral			R.Thigh.Inferior			R.Patella			L.Thigh.Superior			L.Thigh.Lateral			L.Thigh.Inferior			L.Patella			L.Shank.Superior			L.Shank.Lateral			L.Shank.Inferior			R.Shank.Superior			R.Shank.Lateral			R.Shank.Inferior			R.Heel			R.Midfoot.Superior			R.Midfoot.Lateral			R.Toe			L.Heel			L.Midfoot.Lateral			L.Midfoot.Superior			L.Toe			L.Elbow			L.Wrist			R.Elbow			R.Wrist			
		X1	Y1	Z1	X2	Y2	Z2	X3	Y3	Z3	X4	Y4	Z4	X5	Y5	Z5	X6	Y6	Z6	X7	Y7	Z7	X8	Y8	Z8	X9	Y9	Z9	X10	Y10	Z10	X11	Y11	Z11	X12	Y12	Z12	X13	Y13	Z13	X14	Y14	Z14	X15	Y15	Z15	X16	Y16	Z16	X17	Y17	Z17	X18	Y18	Z18	X19	Y19	Z19	X20	Y20	Z20	X21	Y21	Z21	X22	Y22	Z22	X23	Y23	Z23	X24	Y24	Z24	X25	Y25	Z25	X26	Y26	Z26	X27	Y27	Z27	X28	Y28	Z28	X29	Y29	Z29	X30	Y30	Z30	X31	Y31	Z31	X32	Y32	Z32	X33	Y33	Z33	

89	10.784285714286	808.812192823173	1000.384339304805	466.244011615907	966.332071690837	1421.894530638166	266.322294187488	1086.790838735228	1354.771706446291	416.340071836679	1024.957882766913	1436.575250982826	595.454357347088	986.401106436792	1487.741944692618	420.344939553484	1039.088033557997	933.522083619008	570.364563834363	1015.014266273351	954.217681141108	297.400199123997	1070.958515388416	727.126174246174	552.246810023678	988.000337698560	620.434646515823	617.784055299444	1066.914657183820	558.456779524380	544.693683211052	1053.002575504032	448.909415063677	564.674481808254	1091.422904380143	763.163665082350	332.153232738939	1022.556150845327	635.523498494804	271.259776066013	1118.733632657395	570.506868487473	334.554334988983	1130.375872752667	499.205642214688	342.805369391562	1105.110227450053	423.633159276341	334.398692595595	1020.848884368466	305.811925800945	283.685923683529	1078.170116440581	196.236309401570	351.724307529267	971.374311672894	385.539246832506	570.362358895970	848.434623948094	352.343090039741	630.620586365642	827.727827145000	244.706924385684	580.620275657043	621.853866496707	188.813199378620	553.898638095605	789.137069729562	128.005650676953	593.604429037202	680.878919275448	130.175734803077	627.298125866191	851.128290574153	29.667872665021	617.930876554276	956.198830011469	38.325788743749	392.824398781536	1028.801717198633	36.098694240146	310.679183242527	1111.324795559448	97.436825801682	336.660208336067	1239.780696175743	46.993474933498	305.311052376801	832.997768417408	1090.209456130959	187.440253275288	792.566110661556	834.351160055370	208.938799839411	1161.538513952942	1122.239433391864	703.656163315722	1368.864437993687	1219.867941726633	601.244094892424	
90	10.795357142857	808.279968659795	1001.419941601353	463.728680456908	967.286844500362	1423.408995821930	264.543485222384	1086.673252029487	1356.013023592303	415.351543686638	1023.583909076027	1437.613818083719	594.167238447040	986.060497990927	1489.046493946205	418.761555078778	1038.238915841788	934.796909423473	568.531364229720	1014.912764861769	955.407196727091	295.580411330561	1075.638601844468	730.641787363353	550.849759745658	996.098530728313	622.254311488695	616.989482908495	1076.937634307172	561.853687331518	543.991755812778	1064.854789844849	451.231070510285	564.512365010626	1089.286375711577	762.324678741037	329.662421792126	1018.595839444843	635.725398031915	269.693740070292	1113.825254306978	569.661779589161	333.171199716945	1124.488587046064	498.464882435080	341.562294454479	1098.876279540563	423.174082433858	333.274538158624	1014.007954229007	305.615295408314	282.988671910499	1070.916884793184	196.006146493186	351.334969134348	981.836915565462	388.262710024872	569.858191725804	857.448554894368	358.761200613286	629.244264441705	834.602516861750	251.253277266119	580.096637894551	628.425774737308	204.317829900807	551.535343494413	791.726435996047	133.608574402228	593.043311198925	683.133512294958	142.161850138127	625.497099499605	847.013921963734	29.102806066271	618.264398409456	948.371411369523	38.304315338840	392.778909630679	1020.944259098298	36.022741636079	310.631125394668	1103.570884870736	97.277075693178	336.583495489404	1232.017492975647	46.585355281563	305.218997204919	839.124266635576	1089.581505329288	183.004184873352	808.852936424861	832.000732602257	203.036790838954	1150.614190898904	1118.145775989500	702.740180106792	1363.011566298908	1205.597737510505	601.383720491733	
91	10.806428571429	807.625889006007	1002.327604359485	461.302293914063	968.219930177316	1424.785031783556	262.873159322052	1086.471641229680	1357.089680524412	414.513388251272	1022.082423225388	1438.486951577678	593.020188065413	985.685101776421	1490.234288182748	417.295976381202	1037.250829739087	936.001030515205	566.820101491699	1014.709994409410	956.460895740094	293.864988650409	1080.097604472025	734.364921448201	549.425591864933	1004.059414164745	624.416317276774	616.327616861373	1086.638970231190	565.677183480314	543.318340097160	1076.595252337704	454.078085551189	564.319033078748	1087.013576655964	761.519572261940	327.386091363114	1014.632116022167	635.961594810225	268.164249833288	1108.879991193114	568.853718036836	331.827279334622	1118.566825199786	497.742365965560	340.319382444549	1092.638561373338	422.733145706703	332.160088065209	1007.181777103551	305.433321051338	282.253272044047	1063.668487846023	195.781115421203	350.915052167072	992.410599756173	391.332717927293	569.357169361734	866.787496451906	365.076566250950	627.854271833535	842.134296674824	257.731066314007	579.436193250808	636.135628429687	218.659929744142	548.887377695024	795.421101563444	139.399213133452	592.337677670920	686.704055184645	153.581367949968	623.479499625471	844.584274394860	29.176987577116	618.675697644348	940.549866988472	38.301455519817	392.720739789287	1013.096125158377	35.950144705057	310.574859786346	1095.831725277733	97.117530323413	336.493167052927	1224.262454794650	46.165917742349	305.133817509742	845.542692970562	1088.848033705300	178.601257905217	825.874814285012	829.921081897329	196.967525173211	1139.125932726974	1114.116766539547	701.861439340569	1356.568610689660	1190.099328548359	601.840944804114	
92	10.817500000000	806.856853185023	1003.136748930329	458.949935991800	969.095370095418	1426.023774873285	261.320430032730	1086.175827051587	1358.021742654822	413.814098177725	1020.468222618433	1439.213547390965	592.007251648266	985.287917797531	1491.314012215338	415.949663289396	1036.135976452594	937.157828368849	565.219788878729	1014.439917511203	957.406179187339	292.251061634730	1084.280489596970	738.281511119678	547.949472676157	1011.796202709015	626.917537235108	615.769341680443	1095.946966149286	569.909936187104	542.680175552504	1088.154441933417	457.433204827003	564.143668065023	1084.669722759418	760.765022415217	325.304910627260	1010.665548566940	636.215874812739	266.699902794991	1103.928387468565	568.070283036352	330.509452909196	1112.647695067031	497.038601202221	339.102168847792	1086.427939853645	422.310859313763	331.076567576049	1000.389375073052	305.277097462515	281.502417419035	1056.433548227567	195.563177290307	350.474910640290	1003.032221296574	394.726579588788	568.913139289319	876.368668792416	371.174386503362	626.489741252421	850.303446918077	263.986024734248	578.677088272490	644.815874501199	231.366060562268	546.067476706931	800.354802324622	145.191126569349	591.515767454560	691.648807740690	164.026160616067	621.333862585245	844.267248238168	30.031317079733	619.115604071740	932.737838411044	38.315845150669	392.652609294187	1005.260917395600	35.886252021848	310.511458234647	1088.102820416144	96.969871666554	336.390431499426	1216.513611529166	45.762675541505	305.052777549245	852.336476242401	1087.992222317238	174.243497011365	843.591034644855	828.157747583610	190.787154370396	1127.148302095111	1110.235080700775	701.031241323342	1349.443936211134	1173.393004753574	602.635585815127	
